<svg version="1.1"  xmlns="http://www.w3.org/2000/svg">
  <symbol id="test" width="79" height="53" viewBox="0 0 79 53">
  </symbol>
  <symbol id="icon-logo-preloader" width="181" height="85" viewBox="0 0 181 85">
    <path d="M34.5156 43.5212V74.1812L69.594 51.6352V9.84668H27.8054L4 43.5212H34.5156Z" fill="#EC1C29"/> 
    <path fill-rule="evenodd" clip-rule="evenodd" d="M155.833 34.0236C156.246 34.7256 156.618 35.5927 156.907 36.625C157.196 37.6367 157.361 38.7516 157.361 39.9491C157.361 43.81 155.957 46.8864 153.129 49.1575C150.321 51.4286 146.666 52.5642 142.145 52.5642C137.995 52.5642 134.505 51.6351 131.677 49.7769C128.848 47.9393 126.846 45.3998 125.689 42.2202L132.75 38.0909C134.402 42.3648 137.602 44.4914 142.392 44.4914C144.705 44.4914 146.398 44.0784 147.492 43.2319C148.566 42.3854 149.102 41.3324 149.102 40.0524C149.102 38.5865 148.442 37.4303 147.12 36.625C145.799 35.7992 143.445 34.9114 140.059 33.9616C138.18 33.4042 136.591 32.8467 135.311 32.2893C134.01 31.7318 132.709 30.9679 131.408 30.0388C130.108 29.0891 129.117 27.9122 128.456 26.467C127.775 25.0423 127.424 23.37 127.424 21.4499C127.424 17.6509 128.786 14.6365 131.47 12.386C134.154 10.1356 137.396 9 141.195 9C144.581 9 147.575 9.82586 150.135 11.4776C152.716 13.1293 154.718 15.4417 156.164 18.3942L149.226 22.3996C147.533 18.8071 144.87 17.0108 141.195 17.0108C139.481 17.0108 138.139 17.4031 137.148 18.1877C136.178 18.9723 135.682 19.9633 135.682 21.2021C135.682 22.5235 136.24 23.5971 137.334 24.4023C138.428 25.2282 140.534 26.116 143.652 27.0657C144.932 27.4786 145.902 27.7883 146.563 27.9948C147.203 28.2219 148.111 28.5523 149.247 29.0271C150.383 29.4813 151.27 29.9149 151.89 30.3072C152.509 30.6995 153.211 31.2363 153.996 31.9176C154.801 32.599 155.42 33.301 155.833 34.0236ZM159.94 17.0458L165.04 9.81951H174.001V22.2074V28.5046V47.1851L166.465 52.0164V28.5046V27.0387V23.6114V17.0458H159.94ZM111.196 40.2177C108.925 42.6333 105.972 43.8308 102.338 43.8308H93.9559V28.1808V17.7336H102.338C105.972 17.7336 108.925 18.9518 111.196 21.3468C112.93 23.2049 114.004 25.4761 114.417 28.1808C114.54 29.0066 114.602 29.8738 114.602 30.7822C114.602 34.6638 113.467 37.802 111.196 40.2177ZM122.51 30.7822C122.51 29.8944 122.469 29.0273 122.365 28.1808C121.891 23.4114 120.012 19.3028 116.729 15.8754C112.889 11.8494 108.078 9.84665 102.338 9.84665H85.6973V28.1808V51.7384H102.338C108.078 51.7384 112.889 49.7151 116.729 45.689C120.59 41.6629 122.51 36.6871 122.51 30.7822ZM91.3751 73.7682C92.5726 73.7682 93.5842 73.3553 94.3894 72.5294C95.2153 71.7036 95.6282 70.6919 95.6282 69.4944C95.6282 68.3382 95.236 67.3678 94.472 66.5626C94.4514 66.5213 94.4307 66.5006 94.3894 66.4593C93.5842 65.6335 92.5726 65.2206 91.3751 65.2206C90.1776 65.2206 89.1659 65.6335 88.3607 66.4593C88.3194 66.5006 88.2987 66.5213 88.2781 66.5626C87.5142 67.3678 87.1219 68.3382 87.1219 69.4944C87.1219 70.6919 87.5348 71.7036 88.3607 72.5294C89.1659 73.3553 90.1776 73.7682 91.3751 73.7682ZM91.4783 63.8372C93.0268 63.8372 94.3275 64.3947 95.4218 65.4683C95.7521 65.8193 96.0205 66.1703 96.2683 66.5626C96.7844 67.4091 97.0529 68.4001 97.0529 69.4944C97.0529 71.0842 96.516 72.4055 95.4218 73.4998C94.3275 74.5941 93.0268 75.1515 91.4783 75.1515C89.5788 75.1515 88.1129 74.3463 87.1219 72.7772V74.8831H85.6973V66.5626V59.7905H87.1219V66.2116C88.1129 64.6218 89.5788 63.8372 91.4783 63.8372ZM164.01 72.5294C163.494 73.0456 162.915 73.3965 162.255 73.5824C161.862 73.7062 161.429 73.7682 160.995 73.7682C159.798 73.7682 158.786 73.3553 157.96 72.5294C157.155 71.7035 156.742 70.6919 156.742 69.4944C156.742 68.3382 157.134 67.3678 157.898 66.5625C157.902 66.5559 157.905 66.5498 157.908 66.5441C157.915 66.532 157.922 66.5215 157.929 66.5109L157.935 66.5017C157.939 66.4957 157.943 66.4896 157.947 66.4831C157.952 66.4758 157.956 66.468 157.96 66.4593C158.786 65.6335 159.798 65.2205 160.995 65.2205C161.326 65.2205 161.635 65.2618 161.945 65.3238C162.73 65.4889 163.411 65.8606 164.01 66.4593C164.03 66.5006 164.051 66.5213 164.092 66.5625C164.856 67.3678 165.228 68.3382 165.228 69.4944C165.228 70.6919 164.836 71.7035 164.01 72.5294ZM165.228 66.2116C164.423 64.9315 163.308 64.1676 161.883 63.9198C161.573 63.8579 161.222 63.8372 160.871 63.8372C159.344 63.8372 158.022 64.3947 156.949 65.4683C156.618 65.8193 156.329 66.1703 156.102 66.5625C155.586 67.4091 155.318 68.4001 155.318 69.4944C155.318 71.0841 155.854 72.4055 156.949 73.4998C158.022 74.594 159.344 75.1515 160.871 75.1515C161.388 75.1515 161.862 75.0896 162.296 74.9863C163.535 74.6766 164.505 73.9334 165.228 72.7771V74.4495C165.228 75.5644 164.877 76.4522 164.175 77.0923C163.7 77.5258 163.122 77.8149 162.42 77.9594C162.048 78.042 161.677 78.0833 161.243 78.0833C159.323 78.0833 158.022 77.4226 157.382 76.1219L156.123 76.8239C157.011 78.5788 158.724 79.4666 161.243 79.4666C161.677 79.4666 162.069 79.4253 162.461 79.3427C163.432 79.1569 164.299 78.7646 165.063 78.1246C166.136 77.2368 166.652 76.0187 166.652 74.4495V66.5625V64.1056H165.228V66.2116ZM100.046 65.8813C100.706 64.5806 101.842 63.9199 103.452 63.9199V65.3032C102.482 65.3032 101.677 65.5923 101.016 66.1704C100.892 66.2736 100.789 66.4182 100.686 66.5627C100.273 67.1201 100.046 67.8841 100.046 68.8957V74.8832H98.6212V66.5627V64.1057H100.046V65.8813ZM125.028 65.0347C124.285 64.2294 123.253 63.8372 121.931 63.8372C120.321 63.8372 119.123 64.4772 118.318 65.7779V64.1056H116.894V66.5625V74.883H118.318V69.2259C118.318 68.0903 118.566 67.2025 119.02 66.5625C119.103 66.4386 119.185 66.3147 119.289 66.2115C119.929 65.5508 120.775 65.2205 121.808 65.2205C122.737 65.2205 123.459 65.4889 123.975 66.0257C124.12 66.1702 124.244 66.356 124.368 66.5625C124.615 67.0167 124.739 67.5948 124.739 68.2555V74.883H126.164V68.2555C126.164 67.6361 126.081 67.058 125.916 66.5625C125.73 65.9637 125.441 65.4682 125.028 65.0347ZM108.988 73.7681C110.186 73.7681 111.198 73.3552 112.003 72.5293C112.829 71.7035 113.242 70.6918 113.242 69.4943C113.242 68.3381 112.849 67.3677 112.085 66.5625C112.065 66.5212 112.044 66.5006 112.003 66.4593C111.198 65.6334 110.186 65.2205 108.988 65.2205C107.791 65.2205 106.8 65.6334 105.974 66.4593C105.933 66.5006 105.912 66.5212 105.891 66.5625C105.128 67.3677 104.735 68.3381 104.735 69.4943C104.735 70.6918 105.148 71.7035 105.974 72.5293C106.8 73.3552 107.791 73.7681 108.988 73.7681ZM108.885 63.8372C110.805 63.8372 112.251 64.6217 113.242 66.2115V64.1056H114.666V66.5625V74.883H113.242V72.7771C112.251 74.3462 110.805 75.1515 108.885 75.1515C107.337 75.1515 106.036 74.594 104.942 73.4997C103.868 72.4055 103.311 71.0841 103.311 69.4943C103.311 68.4 103.579 67.409 104.116 66.5625C104.343 66.1702 104.611 65.8192 104.942 65.4682C106.036 64.3946 107.337 63.8372 108.885 63.8372ZM141.776 59.749C141.487 59.749 141.239 59.8316 141.053 60.0381C140.847 60.2446 140.743 60.4923 140.743 60.7814C140.743 61.0704 140.847 61.2975 141.053 61.504C141.239 61.7105 141.487 61.8137 141.776 61.8137C142.065 61.8137 142.313 61.7105 142.519 61.504C142.705 61.2975 142.808 61.0704 142.808 60.7814C142.808 60.4923 142.705 60.2446 142.519 60.0381C142.313 59.8316 142.065 59.749 141.776 59.749ZM133.165 73.7682C134.363 73.7682 135.374 73.3553 136.18 72.5294C137.005 71.7036 137.418 70.6919 137.418 69.4944C137.418 68.3382 137.026 67.3678 136.262 66.5626C136.242 66.5213 136.221 66.5007 136.18 66.4594L136.18 66.4594C135.374 65.6335 134.363 65.2206 133.165 65.2206C131.968 65.2206 130.956 65.6335 130.151 66.4594L130.151 66.4594L130.151 66.4594C130.109 66.5007 130.089 66.5213 130.068 66.5626C129.903 66.7278 129.759 66.9136 129.635 67.0994C129.16 67.8014 128.912 68.5859 128.912 69.4944C128.912 70.4028 129.16 71.208 129.635 71.8894C129.779 72.1165 129.944 72.323 130.151 72.5294C130.956 73.3553 131.968 73.7682 133.165 73.7682ZM133.062 63.8372C134.961 63.8372 136.427 64.6218 137.418 66.2116V59.7905H138.843V66.5626V74.8831H137.418V72.7772C136.427 74.3463 134.961 75.1515 133.062 75.1515C131.741 75.1515 130.605 74.7593 129.635 73.954C129.449 73.8302 129.284 73.665 129.119 73.4999L129.118 73.4998C128.024 72.4055 127.487 71.0842 127.487 69.4944C127.487 68.4001 127.756 67.4091 128.272 66.5626C128.52 66.1703 128.788 65.8193 129.118 65.4683C129.175 65.4188 129.232 65.3668 129.289 65.3141L129.289 65.3141L129.289 65.314C129.399 65.2129 129.513 65.109 129.635 65.0141C130.605 64.2295 131.741 63.8372 133.062 63.8372ZM141.07 66.5624V74.8829H142.495V66.5624V64.1054H141.07V66.5624ZM149.766 63.8372C151.066 63.8372 152.099 64.2295 152.863 65.0347C153.255 65.4683 153.544 65.9638 153.73 66.5625C153.895 67.0581 153.998 67.6362 153.998 68.2556V74.8831H152.573V68.2556C152.573 67.5949 152.429 67.0168 152.181 66.5625C152.078 66.3561 151.954 66.1703 151.81 66.0257C151.293 65.4889 150.571 65.2205 149.642 65.2205C148.609 65.2205 147.763 65.5509 147.102 66.2116C147.067 66.2554 147.032 66.3029 146.995 66.3526C146.946 66.42 146.893 66.4913 146.834 66.5625C146.38 67.2026 146.132 68.0904 146.132 69.2259V74.8831H144.728V66.5625V64.1056H146.132V65.778C146.937 64.4772 148.155 63.8372 149.766 63.8372Z" fill="#EC1C29"/>
  </symbol>
  <symbol id="icon-logo-small" width="32" height="41" viewBox="0 0 32 41">
    <path d="M10.0273 20.997V40.1145L31.8997 26.0564V0L0.5 0V20.997H10.0273Z"/>
  </symbol>
  <symbol id="icon-error" width="890" height="430" viewBox="0 0 890 430">
    <path d="M19 315.837V306.939L193.161 25.1901H200.572V49.6578H191.679L36.0456 302.49V303.973H252.45V315.837H19ZM193.161 404.81V25.1901H205.019V404.81H193.161Z" />
    <path d="M444.907 410C420.821 410 400.07 402.153 382.654 386.459C365.361 370.765 352.021 348.337 342.634 319.173C333.247 290.01 328.553 255.285 328.553 215C328.553 174.715 333.247 139.99 342.634 110.827C352.021 81.6635 365.361 59.2348 382.654 43.5409C400.07 27.847 420.821 20 444.907 20C468.994 20 489.683 27.847 506.975 43.5409C524.392 59.2348 537.793 81.6635 547.181 110.827C556.568 139.99 561.262 174.715 561.262 215C561.262 255.285 556.568 290.01 547.181 319.173C537.793 348.337 524.392 370.765 506.975 386.459C489.683 402.153 468.994 410 444.907 410ZM444.907 398.137C477.269 398.137 502.776 381.887 521.427 349.387C540.078 316.887 549.404 272.091 549.404 215C549.404 176.939 545.143 144.254 536.62 116.944C528.221 89.5105 516.239 68.5028 500.676 53.9211C485.113 39.2158 466.523 31.8631 444.907 31.8631C412.546 31.8631 387.039 48.1131 368.388 80.6131C349.736 113.113 340.411 157.909 340.411 215C340.411 253.061 344.61 285.808 353.01 313.241C361.532 340.551 373.575 361.559 389.139 376.264C404.826 390.846 423.415 398.137 444.907 398.137Z" />
    <path d="M637.55 315.837V306.939L811.711 25.1901H819.122V49.6578H810.229L654.596 302.49V303.973H871V315.837H637.55ZM811.711 404.81V25.1901H823.569V404.81H811.711Z" />
  </symbol>
  <symbol id="icon-face" width="32" height="32" viewBox="0 0 32 32">
    <path d="M29.3332 16.0001C29.3332 8.64008 23.3598 2.66675 15.9998 2.66675C8.63984 2.66675 2.6665 8.64008 2.6665 16.0001C2.6665 22.4534 7.25317 27.8267 13.3332 29.0667V20.0001H10.6665V16.0001H13.3332V12.6667C13.3332 10.0934 15.4265 8.00008 17.9998 8.00008H21.3332V12.0001H18.6665C17.9332 12.0001 17.3332 12.6001 17.3332 13.3334V16.0001H21.3332V20.0001H17.3332V29.2667C24.0665 28.6001 29.3332 22.9201 29.3332 16.0001Z"/>
  </symbol>
  <symbol id="icon-insta" width="32" height="32" viewBox="0 0 32 32">
    <path d="M10.3998 2.66675H21.5998C25.8665 2.66675 29.3332 6.13342 29.3332 10.4001V21.6001C29.3332 23.6511 28.5184 25.6181 27.0681 27.0684C25.6178 28.5187 23.6508 29.3334 21.5998 29.3334H10.3998C6.13317 29.3334 2.6665 25.8667 2.6665 21.6001V10.4001C2.6665 8.34907 3.48126 6.38207 4.93155 4.93179C6.38183 3.48151 8.34883 2.66675 10.3998 2.66675ZM10.1332 5.33341C8.86013 5.33341 7.63923 5.83913 6.73906 6.7393C5.83888 7.63948 5.33317 8.86038 5.33317 10.1334V21.8667C5.33317 24.5201 7.47984 26.6667 10.1332 26.6667H21.8665C23.1395 26.6667 24.3604 26.161 25.2606 25.2609C26.1608 24.3607 26.6665 23.1398 26.6665 21.8667V10.1334C26.6665 7.48008 24.5198 5.33341 21.8665 5.33341H10.1332ZM22.9998 7.33341C23.4419 7.33341 23.8658 7.50901 24.1784 7.82157C24.4909 8.13413 24.6665 8.55805 24.6665 9.00008C24.6665 9.44211 24.4909 9.86603 24.1784 10.1786C23.8658 10.4912 23.4419 10.6667 22.9998 10.6667C22.5578 10.6667 22.1339 10.4912 21.8213 10.1786C21.5088 9.86603 21.3332 9.44211 21.3332 9.00008C21.3332 8.55805 21.5088 8.13413 21.8213 7.82157C22.1339 7.50901 22.5578 7.33341 22.9998 7.33341ZM15.9998 9.33341C17.7679 9.33341 19.4636 10.0358 20.7139 11.286C21.9641 12.5363 22.6665 14.232 22.6665 16.0001C22.6665 17.7682 21.9641 19.4639 20.7139 20.7141C19.4636 21.9644 17.7679 22.6667 15.9998 22.6667C14.2317 22.6667 12.536 21.9644 11.2858 20.7141C10.0355 19.4639 9.33317 17.7682 9.33317 16.0001C9.33317 14.232 10.0355 12.5363 11.2858 11.286C12.536 10.0358 14.2317 9.33341 15.9998 9.33341ZM15.9998 12.0001C14.939 12.0001 13.9216 12.4215 13.1714 13.1717C12.4213 13.9218 11.9998 14.9392 11.9998 16.0001C11.9998 17.0609 12.4213 18.0784 13.1714 18.8285C13.9216 19.5787 14.939 20.0001 15.9998 20.0001C17.0607 20.0001 18.0781 19.5787 18.8283 18.8285C19.5784 18.0784 19.9998 17.0609 19.9998 16.0001C19.9998 14.9392 19.5784 13.9218 18.8283 13.1717C18.0781 12.4215 17.0607 12.0001 15.9998 12.0001Z"/>
  </symbol>
  <symbol id="icon-vk-1" width="32" height="32" viewBox="0 0 32 32">
    <path fill-rule="evenodd" clip-rule="evenodd" d="M30.2938 8.25C30.5163 7.545 30.2938 7.0325 29.3094 7.0325H26.0362C25.2106 7.0325 24.8294 7.48125 24.6069 7.96125C24.6069 7.96125 22.9231 12.0612 20.5719 14.7194C19.8094 15.4881 19.46 15.7444 19.0469 15.7444C18.8244 15.7444 18.5381 15.4881 18.5381 14.7837V8.21688C18.5381 7.38438 18.2844 7 17.585 7H12.4375C11.9287 7 11.6112 7.38438 11.6112 7.76875C11.6112 8.56938 12.7869 8.76187 12.9137 11.0037V15.875C12.9137 16.9319 12.7263 17.125 12.31 17.125C11.1981 17.125 8.4975 12.9931 6.8775 8.285C6.5625 7.3525 6.2425 7 5.41625 7H2.11188C1.15875 7 1 7.44813 1 7.92875C1 8.79375 2.11188 13.1494 6.17875 18.9144C8.87937 22.8519 12.7237 24.9681 16.1869 24.9681C18.2844 24.9681 18.5381 24.4875 18.5381 23.6869V20.7081C18.5381 19.7475 18.7287 19.5875 19.3962 19.5875C19.8725 19.5875 20.7306 19.8431 22.6688 21.7331C24.8925 23.975 25.2737 25 26.5131 25H29.7856C30.7388 25 31.1837 24.5194 30.9294 23.5906C30.6437 22.6619 29.5631 21.3169 28.165 19.7156C27.4025 18.8194 26.2587 17.8262 25.9094 17.3456C25.4331 16.705 25.56 16.4488 25.9094 15.8725C25.8775 15.8725 29.8813 10.1713 30.2938 8.2475"/>
  </symbol>
  <symbol id="icon-logo" width="106" height="44" viewBox="0 0 106 44">
    <path d="M19.0273 21.5248V40.6423L40.8997 26.5842V0.527832H14.8434L0 21.5248H19.0273Z"/>
    <path fill-rule="evenodd" clip-rule="evenodd" d="M94.6722 15.6029C94.9296 16.0406 95.1614 16.5813 95.3416 17.225C95.5218 17.8558 95.6248 18.551 95.6248 19.2977C95.6248 21.7051 94.7494 23.6232 92.9857 25.0394C91.2349 26.4555 88.9562 27.1635 86.1369 27.1635C83.5493 27.1635 81.3736 26.5842 79.6099 25.4256C77.8462 24.2798 76.5975 22.6963 75.8766 20.7138L80.2794 18.139C81.3093 20.8039 83.3047 22.1299 86.2914 22.1299C87.7332 22.1299 88.7889 21.8724 89.4712 21.3446C90.1406 20.8168 90.4753 20.1602 90.4753 19.362C90.4753 18.448 90.0634 17.7271 89.2395 17.225C88.4156 16.7101 86.9479 16.1565 84.8367 15.5643C83.6652 15.2167 82.6739 14.8691 81.8757 14.5215C81.0647 14.1739 80.2536 13.6976 79.4426 13.1183C78.6315 12.5261 78.0136 11.7923 77.6016 10.8912C77.1768 10.0029 76.958 8.9601 76.958 7.76284C76.958 5.39408 77.8076 3.51452 79.4812 2.11129C81.1548 0.708054 83.176 0 85.5447 0C87.656 0 89.5227 0.514948 91.119 1.54484C92.7282 2.57474 93.977 4.01659 94.8781 5.85753L90.5526 8.35503C89.4969 6.11501 87.8362 4.995 85.5447 4.995C84.4762 4.995 83.6394 5.2396 83.0215 5.7288C82.4164 6.218 82.1074 6.83594 82.1074 7.60836C82.1074 8.43227 82.455 9.10171 83.1373 9.60378C83.8196 10.1187 85.1328 10.6723 87.0767 11.2645C87.8749 11.522 88.4799 11.7151 88.8919 11.8438C89.291 11.9854 89.8574 12.1914 90.5655 12.4875C91.2735 12.7707 91.8271 13.0411 92.2133 13.2857C92.5995 13.5303 93.0372 13.865 93.5264 14.2898C94.0285 14.7146 94.4147 15.1523 94.6722 15.6029ZM97.233 5.01683L100.413 0.511032H106V8.23525V12.1617V23.8096L101.301 26.822V12.1617V11.2477V9.11066V5.01683H97.233ZM66.8395 19.4651C65.4233 20.9714 63.5824 21.718 61.3166 21.718H56.0899V11.9598V5.44568H61.3166C63.5824 5.44568 65.4233 6.20523 66.8395 7.69858C67.9208 8.85721 68.5903 10.2733 68.8477 11.9598C68.925 12.4747 68.9636 13.0154 68.9636 13.5819C68.9636 16.0021 68.2556 17.9589 66.8395 19.4651ZM73.8942 13.5819C73.8942 13.0283 73.8685 12.4876 73.8041 11.9598C73.508 8.98595 72.3365 6.42408 70.2896 4.28705C67.8951 1.77668 64.8955 0.527929 61.3166 0.527929H50.9404V11.9598V26.6487H61.3166C64.8955 26.6487 67.8951 25.387 70.2896 22.8767C72.697 20.3663 73.8942 17.2637 73.8942 13.5819ZM54.4807 40.3849C55.2274 40.3849 55.8582 40.1274 56.3603 39.6124C56.8752 39.0975 57.1327 38.4667 57.1327 37.72C57.1327 36.9991 56.8881 36.394 56.4118 35.8919C56.3989 35.8662 56.386 35.8533 56.3603 35.8276C55.8582 35.3126 55.2274 35.0551 54.4807 35.0551C53.734 35.0551 53.1032 35.3126 52.6011 35.8276C52.5754 35.8533 52.5625 35.8662 52.5496 35.8919C52.0733 36.394 51.8287 36.9991 51.8287 37.72C51.8287 38.4667 52.0862 39.0975 52.6011 39.6124C53.1032 40.1274 53.734 40.3849 54.4807 40.3849ZM54.5451 34.1926C55.5106 34.1926 56.3216 34.5402 57.0039 35.2096C57.2099 35.4285 57.3773 35.6473 57.5318 35.8919C57.8536 36.4198 58.021 37.0377 58.021 37.72C58.021 38.7113 57.6862 39.5352 57.0039 40.2175C56.3216 40.8998 55.5106 41.2474 54.5451 41.2474C53.3607 41.2474 52.4467 40.7453 51.8287 39.7669V41.08H50.9404V35.8919V31.6694H51.8287V35.6731C52.4467 34.6818 53.3607 34.1926 54.5451 34.1926ZM99.7704 39.6124C99.4486 39.9342 99.0881 40.1531 98.6762 40.2689C98.4316 40.3462 98.1612 40.3848 97.8909 40.3848C97.1442 40.3848 96.5134 40.1273 95.9984 39.6124C95.4963 39.0974 95.2389 38.4666 95.2389 37.72C95.2389 36.999 95.4835 36.394 95.9598 35.8919C95.9662 35.879 95.9727 35.8694 95.9791 35.8597C95.9856 35.85 95.992 35.8404 95.9984 35.8275C96.5134 35.3126 97.1442 35.0551 97.8909 35.0551C98.0968 35.0551 98.2899 35.0808 98.483 35.1195C98.9722 35.2225 99.3971 35.4542 99.7704 35.8275C99.7833 35.8533 99.7962 35.8661 99.8219 35.8919C100.298 36.394 100.53 36.999 100.53 37.72C100.53 38.4666 100.285 39.0974 99.7704 39.6124ZM100.53 35.673C100.028 34.8749 99.3327 34.3985 98.4444 34.2441C98.2513 34.2054 98.0325 34.1926 97.8136 34.1926C96.861 34.1926 96.037 34.5401 95.3676 35.2096C95.1616 35.4284 94.9814 35.6473 94.8398 35.8919C94.5179 36.4197 94.3506 37.0376 94.3506 37.72C94.3506 38.7112 94.6853 39.5351 95.3676 40.2174C96.037 40.8998 96.861 41.2473 97.8136 41.2473C98.1355 41.2473 98.4316 41.2087 98.7019 41.1444C99.4743 40.9513 100.079 40.4878 100.53 39.7669V40.8096C100.53 41.5048 100.311 42.0584 99.8734 42.4575C99.5773 42.7278 99.2169 42.9081 98.7791 42.9982C98.5474 43.0497 98.3157 43.0754 98.0453 43.0754C96.8481 43.0754 96.037 42.6635 95.638 41.8524L94.8527 42.2901C95.4062 43.3844 96.4748 43.938 98.0453 43.938C98.3157 43.938 98.5603 43.9122 98.8049 43.8607C99.41 43.7448 99.9506 43.5002 100.427 43.1012C101.096 42.5476 101.418 41.788 101.418 40.8096V35.8919V34.3599H100.53V35.673ZM59.8869 35.4672C60.2989 34.6561 61.007 34.2442 62.0111 34.2442V35.1067C61.406 35.1067 60.904 35.2869 60.492 35.6474C60.4148 35.7118 60.3504 35.8019 60.286 35.892C60.0286 36.2396 59.8869 36.7159 59.8869 37.3467V41.0801H58.9987V35.892V34.36H59.8869V35.4672ZM75.4643 34.9392C75.0009 34.4372 74.3572 34.1926 73.5333 34.1926C72.5291 34.1926 71.7824 34.5916 71.2804 35.4027V34.3599H70.3921V35.8919V41.08H71.2804V37.5526C71.2804 36.8445 71.4348 36.291 71.7181 35.8919C71.7696 35.8146 71.821 35.7374 71.8854 35.673C72.2845 35.2611 72.8123 35.0551 73.456 35.0551C74.0353 35.0551 74.4859 35.2225 74.8077 35.5572C74.8979 35.6473 74.9751 35.7631 75.0523 35.8919C75.2068 36.1751 75.2841 36.5356 75.2841 36.9475V41.08H76.1724V36.9475C76.1724 36.5613 76.1209 36.2009 76.0179 35.8919C75.902 35.5186 75.7218 35.2096 75.4643 34.9392ZM65.4628 40.3848C66.2095 40.3848 66.8403 40.1273 67.3423 39.6124C67.8573 39.0974 68.1148 38.4666 68.1148 37.72C68.1148 36.999 67.8702 36.394 67.3938 35.8919C67.381 35.8661 67.3681 35.8533 67.3423 35.8275C66.8403 35.3126 66.2095 35.0551 65.4628 35.0551C64.7161 35.0551 64.0982 35.3126 63.5832 35.8275L63.5832 35.8275C63.5575 35.8533 63.5446 35.8661 63.5317 35.8919C63.0554 36.394 62.8108 36.999 62.8108 37.72C62.8108 38.4666 63.0683 39.0974 63.5832 39.6124C64.0982 40.1273 64.7161 40.3848 65.4628 40.3848ZM65.3984 34.1926C66.5957 34.1926 67.4968 34.6818 68.1148 35.673V34.3599H69.0031V35.8919V41.08H68.1148V39.7669C67.4968 40.7453 66.5957 41.2473 65.3984 41.2473C64.4329 41.2473 63.6218 40.8998 62.9395 40.2174C62.2701 39.5351 61.9225 38.7112 61.9225 37.72C61.9225 37.0376 62.0899 36.4197 62.4246 35.8919C62.5662 35.6473 62.7336 35.4284 62.9395 35.2096C63.6218 34.5401 64.4329 34.1926 65.3984 34.1926ZM85.907 31.6435C85.7267 31.6435 85.5723 31.695 85.4564 31.8237C85.3277 31.9525 85.2633 32.1069 85.2633 32.2872C85.2633 32.4674 85.3277 32.609 85.4564 32.7378C85.5723 32.8665 85.7267 32.9309 85.907 32.9309C86.0872 32.9309 86.2417 32.8665 86.3704 32.7378C86.4863 32.609 86.5507 32.4674 86.5507 32.2872C86.5507 32.1069 86.4863 31.9525 86.3704 31.8237C86.2417 31.695 86.0872 31.6435 85.907 31.6435ZM80.5381 40.3849C81.2848 40.3849 81.9156 40.1274 82.4177 39.6124C82.9327 39.0975 83.1901 38.4667 83.1901 37.72C83.1901 36.9991 82.9455 36.394 82.4692 35.8919C82.4563 35.8662 82.4435 35.8533 82.4177 35.8276C81.9156 35.3126 81.2848 35.0551 80.5381 35.0551C79.7915 35.0551 79.1607 35.3126 78.6586 35.8276C78.6328 35.8533 78.62 35.8662 78.6071 35.8919C78.5041 35.9949 78.414 36.1108 78.3367 36.2267C78.0407 36.6644 77.8862 37.1536 77.8862 37.72C77.8862 38.2864 78.0407 38.7885 78.3367 39.2134C78.4269 39.355 78.5299 39.4837 78.6586 39.6124C79.1607 40.1274 79.7915 40.3849 80.5381 40.3849ZM80.4738 34.1926C81.6582 34.1926 82.5722 34.6818 83.1901 35.6731V31.6694H84.0784V35.8919V41.08H83.1901V39.7669C82.5722 40.7453 81.6582 41.2474 80.4738 41.2474C79.6499 41.2474 78.9418 41.0028 78.3367 40.5007C78.2209 40.4235 78.1179 40.3205 78.0149 40.2175C77.3326 39.5352 76.9979 38.7113 76.9979 37.72C76.9979 37.0377 77.1652 36.4198 77.4871 35.8919C77.6416 35.6473 77.8089 35.4285 78.0149 35.2096C78.0502 35.1787 78.0855 35.1463 78.1213 35.1135C78.19 35.0504 78.2606 34.9856 78.3367 34.9264C78.9418 34.4372 79.6499 34.1926 80.4738 34.1926ZM85.4671 35.8918V41.0799H86.3554V35.8918V34.3599H85.4671V35.8918ZM90.8889 34.1926C91.6999 34.1926 92.3436 34.4372 92.8199 34.9392C93.0645 35.2096 93.2447 35.5186 93.3606 35.8919C93.4636 36.2009 93.528 36.5613 93.528 36.9475V41.08H92.6397V36.9475C92.6397 36.5356 92.5496 36.1751 92.3951 35.8919C92.3307 35.7631 92.2535 35.6473 92.1633 35.5572C91.8415 35.2225 91.3909 35.0551 90.8116 35.0551C90.1679 35.0551 89.6401 35.2611 89.2281 35.673C89.2063 35.7004 89.1844 35.73 89.1616 35.761C89.1306 35.803 89.0978 35.8474 89.0608 35.8919C88.7776 36.291 88.6231 36.8445 88.6231 37.5526V41.08H87.7477V35.8919V34.3599H88.6231V35.4027C89.1252 34.5916 89.8847 34.1926 90.8889 34.1926Z"/>
  </symbol>
  <symbol id="icon-pin"  width="14" height="20" viewBox="0 0 14 20" >
    <path fill-rule="evenodd" clip-rule="evenodd" d="M14 5C14 2.23858 11.7614 9.78513e-08 9 2.18557e-07C6.23858 3.39263e-07 4 2.23858 4 5L4 13C4 14.6569 5.34315 16 7 16C8.65685 16 10 14.6569 10 13L10 5C10 4.44771 9.55228 4 9 4C8.44771 4 8 4.44772 8 5L8 13L7.99327 13.1166C7.93551 13.614 7.51284 14 7 14C6.48716 14 6.06449 13.614 6.00673 13.1166L6 13L6 5C6 3.34315 7.34315 2 9 2C10.6569 2 12 3.34315 12 5L12 13C12 15.7614 9.76142 18 7 18C4.31124 18 2.11818 15.8777 2.00462 13.2169L2 13L2 5C2 4.44772 1.55228 4 0.999999 4C0.447714 4 -6.79812e-07 4.44772 -6.55671e-07 5L-3.0598e-07 13C-1.36992e-07 16.866 3.13401 20 7 20C10.866 20 14 16.866 14 13L14 5Z"/>
  </symbol>
  <symbol id="icon-tg" width="32" height="32" viewBox="0 0 32 32">
    <path d="M2.9142 15.565C5.7198 14.0196 8.8516 12.7297 11.7778 11.4333C16.812 9.30995 21.8662 7.22335 26.9714 5.28075C27.9647 4.94977 29.7494 4.62613 29.9244 6.09807C29.8285 8.18167 29.4343 10.2531 29.164 12.3245C28.4777 16.8797 27.6845 21.4193 26.911 25.9595C26.6445 27.4718 24.75 28.2547 23.5378 27.2869C20.6246 25.3191 17.689 23.3705 14.813 21.3571C13.8709 20.3998 14.7445 19.0251 15.5859 18.3415C17.9853 15.9769 20.5299 13.9679 22.8039 11.4811C23.4173 9.99983 21.6049 11.2481 21.007 11.6307C17.7222 13.8943 14.5178 16.2961 11.0546 18.2855C9.28564 19.2593 7.22384 18.4271 5.45564 17.8837C3.87026 17.2273 1.54704 16.566 2.91404 15.5651L2.9142 15.565Z"/>
  </symbol>
  <symbol id="icon-dzen" width="32" height="32" viewBox="0 0 32 32">
    <path d="M18.2381 18.3143C16.3524 20.26 16.2153 22.6857 16.0524 28C21.0067 28 24.4267 27.9829 26.1924 26.2686C27.9067 24.5029 27.9238 20.92 27.9238 16.1286C22.6095 16.3 20.1838 16.4286 18.2381 18.3143ZM3.92383 16.1286C3.92383 20.92 3.94097 24.5029 5.65526 26.2686C7.42097 27.9829 10.841 28 15.7953 28C15.6238 22.6857 15.4953 20.26 13.6095 18.3143C11.6638 16.4286 9.23811 16.2914 3.92383 16.1286ZM15.7953 4C10.8495 4 7.42097 4.01714 5.65526 5.73143C3.94097 7.49714 3.92383 11.08 3.92383 15.8714C9.23811 15.7 11.6638 15.5714 13.6095 13.6857C15.4953 11.74 15.6324 9.31429 15.7953 4ZM18.2381 13.6857C16.3524 11.74 16.2153 9.31429 16.0524 4C21.0067 4 24.4267 4.01714 26.1924 5.73143C27.9067 7.49714 27.9238 11.08 27.9238 15.8714C22.6095 15.7 20.1838 15.5714 18.2381 13.6857Z"/>
  </symbol>
  <symbol id="icon-vk" width="32" height="32" viewBox="0 0 32 32">
    <path fill-rule="evenodd" clip-rule="evenodd" d="M31.1943 8.24911C31.4242 7.54448 31.1943 7.03203 30.1766 7.03203H26.7949C25.9413 7.03203 25.5473 7.48043 25.3175 7.96085C25.3175 7.96085 23.5775 12.0605 21.1479 14.7189C20.36 15.4875 19.9988 15.7438 19.572 15.7438C19.3422 15.7438 19.0467 15.4875 19.0467 14.7829V8.21708C19.0467 7.38434 18.7841 7 18.0618 7H12.7431C12.2178 7 11.8895 7.38434 11.8895 7.76868C11.8895 8.56939 13.1043 8.76157 13.2356 11.0036V15.8719C13.2356 16.9288 13.0386 17.121 12.6118 17.121C11.4627 17.121 8.67203 12.9893 6.99763 8.28114C6.66932 7.35231 6.341 7 5.48739 7H2.07293C1.08798 7 0.923828 7.4484 0.923828 7.92882C0.923828 8.79359 2.07293 13.1495 6.27534 18.9146C9.06601 22.8541 13.0386 24.968 16.6172 24.968C18.7841 24.968 19.0467 24.4875 19.0467 23.6868V20.7082C19.0467 19.7473 19.2437 19.5872 19.9332 19.5872C20.4257 19.5872 21.3121 19.8434 23.3148 21.7331C25.613 23.9751 26.007 25 27.2874 25H30.669C31.654 25 32.1136 24.5196 31.851 23.5907C31.5555 22.6619 30.4392 21.3167 28.9946 19.7153C28.2067 18.8185 27.0248 17.8256 26.6636 17.3452C26.1711 16.7046 26.3025 16.4484 26.6636 15.8719C26.6308 15.8719 30.7675 10.1708 31.1943 8.24911Z"/>
  </symbol>
</svg>
