<svg width="106" height="44" viewBox="0 0 106 44" fill="none" xmlns="http://www.w3.org/2000/svg">
<path d="M19.0273 21.5248V40.6423L40.8997 26.5842V0.527832H14.8434L0 21.5248H19.0273Z" fill="white"/>
<path fill-rule="evenodd" clip-rule="evenodd" d="M94.6722 15.6029C94.9296 16.0406 95.1614 16.5813 95.3416 17.225C95.5218 17.8558 95.6248 18.551 95.6248 19.2977C95.6248 21.7051 94.7494 23.6232 92.9857 25.0394C91.2349 26.4555 88.9562 27.1635 86.1369 27.1635C83.5493 27.1635 81.3736 26.5842 79.6099 25.4256C77.8462 24.2798 76.5975 22.6963 75.8766 20.7138L80.2794 18.139C81.3093 20.8039 83.3047 22.1299 86.2914 22.1299C87.7332 22.1299 88.7889 21.8724 89.4712 21.3446C90.1406 20.8168 90.4753 20.1602 90.4753 19.362C90.4753 18.448 90.0634 17.7271 89.2395 17.225C88.4156 16.7101 86.9479 16.1565 84.8367 15.5643C83.6652 15.2167 82.6739 14.8691 81.8757 14.5215C81.0647 14.1739 80.2536 13.6976 79.4426 13.1183C78.6315 12.5261 78.0136 11.7923 77.6016 10.8912C77.1768 10.0029 76.958 8.9601 76.958 7.76284C76.958 5.39408 77.8076 3.51452 79.4812 2.11129C81.1548 0.708054 83.176 0 85.5447 0C87.656 0 89.5227 0.514948 91.119 1.54484C92.7282 2.57474 93.977 4.01659 94.8781 5.85753L90.5526 8.35503C89.4969 6.11501 87.8362 4.995 85.5447 4.995C84.4762 4.995 83.6394 5.2396 83.0215 5.7288C82.4164 6.218 82.1074 6.83594 82.1074 7.60836C82.1074 8.43227 82.455 9.10171 83.1373 9.60378C83.8196 10.1187 85.1328 10.6723 87.0767 11.2645C87.8749 11.522 88.4799 11.7151 88.8919 11.8438C89.291 11.9854 89.8574 12.1914 90.5655 12.4875C91.2735 12.7707 91.8271 13.0411 92.2133 13.2857C92.5995 13.5303 93.0372 13.865 93.5264 14.2898C94.0285 14.7146 94.4147 15.1523 94.6722 15.6029ZM97.233 5.01683L100.413 0.511032H106V8.23525V12.1617V23.8096L101.301 26.822V12.1617V11.2477V9.11066V5.01683H97.233ZM66.8395 19.4651C65.4233 20.9714 63.5824 21.718 61.3166 21.718H56.0899V11.9598V5.44568H61.3166C63.5824 5.44568 65.4233 6.20523 66.8395 7.69858C67.9208 8.85721 68.5903 10.2733 68.8477 11.9598C68.925 12.4747 68.9636 13.0154 68.9636 13.5819C68.9636 16.0021 68.2556 17.9589 66.8395 19.4651ZM73.8942 13.5819C73.8942 13.0283 73.8685 12.4876 73.8041 11.9598C73.508 8.98595 72.3365 6.42408 70.2896 4.28705C67.8951 1.77668 64.8955 0.527929 61.3166 0.527929H50.9404V11.9598V26.6487H61.3166C64.8955 26.6487 67.8951 25.387 70.2896 22.8767C72.697 20.3663 73.8942 17.2637 73.8942 13.5819ZM54.4807 40.3849C55.2274 40.3849 55.8582 40.1274 56.3603 39.6124C56.8752 39.0975 57.1327 38.4667 57.1327 37.72C57.1327 36.9991 56.8881 36.394 56.4118 35.8919C56.3989 35.8662 56.386 35.8533 56.3603 35.8276C55.8582 35.3126 55.2274 35.0551 54.4807 35.0551C53.734 35.0551 53.1032 35.3126 52.6011 35.8276C52.5754 35.8533 52.5625 35.8662 52.5496 35.8919C52.0733 36.394 51.8287 36.9991 51.8287 37.72C51.8287 38.4667 52.0862 39.0975 52.6011 39.6124C53.1032 40.1274 53.734 40.3849 54.4807 40.3849ZM54.5451 34.1926C55.5106 34.1926 56.3216 34.5402 57.0039 35.2096C57.2099 35.4285 57.3773 35.6473 57.5318 35.8919C57.8536 36.4198 58.021 37.0377 58.021 37.72C58.021 38.7113 57.6862 39.5352 57.0039 40.2175C56.3216 40.8998 55.5106 41.2474 54.5451 41.2474C53.3607 41.2474 52.4467 40.7453 51.8287 39.7669V41.08H50.9404V35.8919V31.6694H51.8287V35.6731C52.4467 34.6818 53.3607 34.1926 54.5451 34.1926ZM99.7704 39.6124C99.4486 39.9342 99.0881 40.1531 98.6762 40.2689C98.4316 40.3462 98.1612 40.3848 97.8909 40.3848C97.1442 40.3848 96.5134 40.1273 95.9984 39.6124C95.4963 39.0974 95.2389 38.4666 95.2389 37.72C95.2389 36.999 95.4835 36.394 95.9598 35.8919C95.9662 35.879 95.9727 35.8694 95.9791 35.8597C95.9856 35.85 95.992 35.8404 95.9984 35.8275C96.5134 35.3126 97.1442 35.0551 97.8909 35.0551C98.0968 35.0551 98.2899 35.0808 98.483 35.1195C98.9722 35.2225 99.3971 35.4542 99.7704 35.8275C99.7833 35.8533 99.7962 35.8661 99.8219 35.8919C100.298 36.394 100.53 36.999 100.53 37.72C100.53 38.4666 100.285 39.0974 99.7704 39.6124ZM100.53 35.673C100.028 34.8749 99.3327 34.3985 98.4444 34.2441C98.2513 34.2054 98.0325 34.1926 97.8136 34.1926C96.861 34.1926 96.037 34.5401 95.3676 35.2096C95.1616 35.4284 94.9814 35.6473 94.8398 35.8919C94.5179 36.4197 94.3506 37.0376 94.3506 37.72C94.3506 38.7112 94.6853 39.5351 95.3676 40.2174C96.037 40.8998 96.861 41.2473 97.8136 41.2473C98.1355 41.2473 98.4316 41.2087 98.7019 41.1444C99.4743 40.9513 100.079 40.4878 100.53 39.7669V40.8096C100.53 41.5048 100.311 42.0584 99.8734 42.4575C99.5773 42.7278 99.2169 42.9081 98.7791 42.9982C98.5474 43.0497 98.3157 43.0754 98.0453 43.0754C96.8481 43.0754 96.037 42.6635 95.638 41.8524L94.8527 42.2901C95.4062 43.3844 96.4748 43.938 98.0453 43.938C98.3157 43.938 98.5603 43.9122 98.8049 43.8607C99.41 43.7448 99.9506 43.5002 100.427 43.1012C101.096 42.5476 101.418 41.788 101.418 40.8096V35.8919V34.3599H100.53V35.673ZM59.8869 35.4672C60.2989 34.6561 61.007 34.2442 62.0111 34.2442V35.1067C61.406 35.1067 60.904 35.2869 60.492 35.6474C60.4148 35.7118 60.3504 35.8019 60.286 35.892C60.0286 36.2396 59.8869 36.7159 59.8869 37.3467V41.0801H58.9987V35.892V34.36H59.8869V35.4672ZM75.4643 34.9392C75.0009 34.4372 74.3572 34.1926 73.5333 34.1926C72.5291 34.1926 71.7824 34.5916 71.2804 35.4027V34.3599H70.3921V35.8919V41.08H71.2804V37.5526C71.2804 36.8445 71.4348 36.291 71.7181 35.8919C71.7696 35.8146 71.821 35.7374 71.8854 35.673C72.2845 35.2611 72.8123 35.0551 73.456 35.0551C74.0353 35.0551 74.4859 35.2225 74.8077 35.5572C74.8979 35.6473 74.9751 35.7631 75.0523 35.8919C75.2068 36.1751 75.2841 36.5356 75.2841 36.9475V41.08H76.1724V36.9475C76.1724 36.5613 76.1209 36.2009 76.0179 35.8919C75.902 35.5186 75.7218 35.2096 75.4643 34.9392ZM65.4628 40.3848C66.2095 40.3848 66.8403 40.1273 67.3423 39.6124C67.8573 39.0974 68.1148 38.4666 68.1148 37.72C68.1148 36.999 67.8702 36.394 67.3938 35.8919C67.381 35.8661 67.3681 35.8533 67.3423 35.8275C66.8403 35.3126 66.2095 35.0551 65.4628 35.0551C64.7161 35.0551 64.0982 35.3126 63.5832 35.8275L63.5832 35.8275C63.5575 35.8533 63.5446 35.8661 63.5317 35.8919C63.0554 36.394 62.8108 36.999 62.8108 37.72C62.8108 38.4666 63.0683 39.0974 63.5832 39.6124C64.0982 40.1273 64.7161 40.3848 65.4628 40.3848ZM65.3984 34.1926C66.5957 34.1926 67.4968 34.6818 68.1148 35.673V34.3599H69.0031V35.8919V41.08H68.1148V39.7669C67.4968 40.7453 66.5957 41.2473 65.3984 41.2473C64.4329 41.2473 63.6218 40.8998 62.9395 40.2174C62.2701 39.5351 61.9225 38.7112 61.9225 37.72C61.9225 37.0376 62.0899 36.4197 62.4246 35.8919C62.5662 35.6473 62.7336 35.4284 62.9395 35.2096C63.6218 34.5401 64.4329 34.1926 65.3984 34.1926ZM85.907 31.6435C85.7267 31.6435 85.5723 31.695 85.4564 31.8237C85.3277 31.9525 85.2633 32.1069 85.2633 32.2872C85.2633 32.4674 85.3277 32.609 85.4564 32.7378C85.5723 32.8665 85.7267 32.9309 85.907 32.9309C86.0872 32.9309 86.2417 32.8665 86.3704 32.7378C86.4863 32.609 86.5507 32.4674 86.5507 32.2872C86.5507 32.1069 86.4863 31.9525 86.3704 31.8237C86.2417 31.695 86.0872 31.6435 85.907 31.6435ZM80.5381 40.3849C81.2848 40.3849 81.9156 40.1274 82.4177 39.6124C82.9327 39.0975 83.1901 38.4667 83.1901 37.72C83.1901 36.9991 82.9455 36.394 82.4692 35.8919C82.4563 35.8662 82.4435 35.8533 82.4177 35.8276C81.9156 35.3126 81.2848 35.0551 80.5381 35.0551C79.7915 35.0551 79.1607 35.3126 78.6586 35.8276C78.6328 35.8533 78.62 35.8662 78.6071 35.8919C78.5041 35.9949 78.414 36.1108 78.3367 36.2267C78.0407 36.6644 77.8862 37.1536 77.8862 37.72C77.8862 38.2864 78.0407 38.7885 78.3367 39.2134C78.4269 39.355 78.5299 39.4837 78.6586 39.6124C79.1607 40.1274 79.7915 40.3849 80.5381 40.3849ZM80.4738 34.1926C81.6582 34.1926 82.5722 34.6818 83.1901 35.6731V31.6694H84.0784V35.8919V41.08H83.1901V39.7669C82.5722 40.7453 81.6582 41.2474 80.4738 41.2474C79.6499 41.2474 78.9418 41.0028 78.3367 40.5007C78.2209 40.4235 78.1179 40.3205 78.0149 40.2175C77.3326 39.5352 76.9979 38.7113 76.9979 37.72C76.9979 37.0377 77.1652 36.4198 77.4871 35.8919C77.6416 35.6473 77.8089 35.4285 78.0149 35.2096C78.0502 35.1787 78.0855 35.1463 78.1213 35.1135C78.19 35.0504 78.2606 34.9856 78.3367 34.9264C78.9418 34.4372 79.6499 34.1926 80.4738 34.1926ZM85.4671 35.8918V41.0799H86.3554V35.8918V34.3599H85.4671V35.8918ZM90.8889 34.1926C91.6999 34.1926 92.3436 34.4372 92.8199 34.9392C93.0645 35.2096 93.2447 35.5186 93.3606 35.8919C93.4636 36.2009 93.528 36.5613 93.528 36.9475V41.08H92.6397V36.9475C92.6397 36.5356 92.5496 36.1751 92.3951 35.8919C92.3307 35.7631 92.2535 35.6473 92.1633 35.5572C91.8415 35.2225 91.3909 35.0551 90.8116 35.0551C90.1679 35.0551 89.6401 35.2611 89.2281 35.673C89.2063 35.7004 89.1844 35.73 89.1616 35.761C89.1306 35.803 89.0978 35.8474 89.0608 35.8919C88.7776 36.291 88.6231 36.8445 88.6231 37.5526V41.08H87.7477V35.8919V34.3599H88.6231V35.4027C89.1252 34.5916 89.8847 34.1926 90.8889 34.1926Z" fill="white"/>
</svg>
