<svg width="181" height="85" viewBox="0 0 181 85" fill="none" xmlns="http://www.w3.org/2000/svg">
<path d="M34.5156 43.5212V74.1812L69.594 51.6352V9.84668H27.8054L4 43.5212H34.5156Z" fill="#EC1C29"/>
<path fill-rule="evenodd" clip-rule="evenodd" d="M155.833 34.0236C156.246 34.7256 156.618 35.5927 156.907 36.625C157.196 37.6367 157.361 38.7516 157.361 39.9491C157.361 43.81 155.957 46.8864 153.129 49.1575C150.321 51.4286 146.666 52.5642 142.145 52.5642C137.995 52.5642 134.505 51.6351 131.677 49.7769C128.848 47.9393 126.846 45.3998 125.689 42.2202L132.75 38.0909C134.402 42.3648 137.602 44.4914 142.392 44.4914C144.705 44.4914 146.398 44.0784 147.492 43.2319C148.566 42.3854 149.102 41.3324 149.102 40.0524C149.102 38.5865 148.442 37.4303 147.12 36.625C145.799 35.7992 143.445 34.9114 140.059 33.9616C138.18 33.4042 136.591 32.8467 135.311 32.2893C134.01 31.7318 132.709 30.9679 131.408 30.0388C130.108 29.0891 129.117 27.9122 128.456 26.467C127.775 25.0423 127.424 23.37 127.424 21.4499C127.424 17.6509 128.786 14.6365 131.47 12.386C134.154 10.1356 137.396 9 141.195 9C144.581 9 147.575 9.82586 150.135 11.4776C152.716 13.1293 154.718 15.4417 156.164 18.3942L149.226 22.3996C147.533 18.8071 144.87 17.0108 141.195 17.0108C139.481 17.0108 138.139 17.4031 137.148 18.1877C136.178 18.9723 135.682 19.9633 135.682 21.2021C135.682 22.5235 136.24 23.5971 137.334 24.4023C138.428 25.2282 140.534 26.116 143.652 27.0657C144.932 27.4786 145.902 27.7883 146.563 27.9948C147.203 28.2219 148.111 28.5523 149.247 29.0271C150.383 29.4813 151.27 29.9149 151.89 30.3072C152.509 30.6995 153.211 31.2363 153.996 31.9176C154.801 32.599 155.42 33.301 155.833 34.0236ZM159.94 17.0458L165.04 9.81951H174.001V22.2074V28.5046V47.1851L166.465 52.0164V28.5046V27.0387V23.6114V17.0458H159.94ZM111.196 40.2177C108.925 42.6333 105.972 43.8308 102.338 43.8308H93.9559V28.1808V17.7336H102.338C105.972 17.7336 108.925 18.9518 111.196 21.3468C112.93 23.2049 114.004 25.4761 114.417 28.1808C114.54 29.0066 114.602 29.8738 114.602 30.7822C114.602 34.6638 113.467 37.802 111.196 40.2177ZM122.51 30.7822C122.51 29.8944 122.469 29.0273 122.365 28.1808C121.891 23.4114 120.012 19.3028 116.729 15.8754C112.889 11.8494 108.078 9.84665 102.338 9.84665H85.6973V28.1808V51.7384H102.338C108.078 51.7384 112.889 49.7151 116.729 45.689C120.59 41.6629 122.51 36.6871 122.51 30.7822ZM91.3751 73.7682C92.5726 73.7682 93.5842 73.3553 94.3894 72.5294C95.2153 71.7036 95.6282 70.6919 95.6282 69.4944C95.6282 68.3382 95.236 67.3678 94.472 66.5626C94.4514 66.5213 94.4307 66.5006 94.3894 66.4593C93.5842 65.6335 92.5726 65.2206 91.3751 65.2206C90.1776 65.2206 89.1659 65.6335 88.3607 66.4593C88.3194 66.5006 88.2987 66.5213 88.2781 66.5626C87.5142 67.3678 87.1219 68.3382 87.1219 69.4944C87.1219 70.6919 87.5348 71.7036 88.3607 72.5294C89.1659 73.3553 90.1776 73.7682 91.3751 73.7682ZM91.4783 63.8372C93.0268 63.8372 94.3275 64.3947 95.4218 65.4683C95.7521 65.8193 96.0205 66.1703 96.2683 66.5626C96.7844 67.4091 97.0529 68.4001 97.0529 69.4944C97.0529 71.0842 96.516 72.4055 95.4218 73.4998C94.3275 74.5941 93.0268 75.1515 91.4783 75.1515C89.5788 75.1515 88.1129 74.3463 87.1219 72.7772V74.8831H85.6973V66.5626V59.7905H87.1219V66.2116C88.1129 64.6218 89.5788 63.8372 91.4783 63.8372ZM164.01 72.5294C163.494 73.0456 162.915 73.3965 162.255 73.5824C161.862 73.7062 161.429 73.7682 160.995 73.7682C159.798 73.7682 158.786 73.3553 157.96 72.5294C157.155 71.7035 156.742 70.6919 156.742 69.4944C156.742 68.3382 157.134 67.3678 157.898 66.5625C157.902 66.5559 157.905 66.5498 157.908 66.5441C157.915 66.532 157.922 66.5215 157.929 66.5109L157.935 66.5017C157.939 66.4957 157.943 66.4896 157.947 66.4831C157.952 66.4758 157.956 66.468 157.96 66.4593C158.786 65.6335 159.798 65.2205 160.995 65.2205C161.326 65.2205 161.635 65.2618 161.945 65.3238C162.73 65.4889 163.411 65.8606 164.01 66.4593C164.03 66.5006 164.051 66.5213 164.092 66.5625C164.856 67.3678 165.228 68.3382 165.228 69.4944C165.228 70.6919 164.836 71.7035 164.01 72.5294ZM165.228 66.2116C164.423 64.9315 163.308 64.1676 161.883 63.9198C161.573 63.8579 161.222 63.8372 160.871 63.8372C159.344 63.8372 158.022 64.3947 156.949 65.4683C156.618 65.8193 156.329 66.1703 156.102 66.5625C155.586 67.4091 155.318 68.4001 155.318 69.4944C155.318 71.0841 155.854 72.4055 156.949 73.4998C158.022 74.594 159.344 75.1515 160.871 75.1515C161.388 75.1515 161.862 75.0896 162.296 74.9863C163.535 74.6766 164.505 73.9334 165.228 72.7771V74.4495C165.228 75.5644 164.877 76.4522 164.175 77.0923C163.7 77.5258 163.122 77.8149 162.42 77.9594C162.048 78.042 161.677 78.0833 161.243 78.0833C159.323 78.0833 158.022 77.4226 157.382 76.1219L156.123 76.8239C157.011 78.5788 158.724 79.4666 161.243 79.4666C161.677 79.4666 162.069 79.4253 162.461 79.3427C163.432 79.1569 164.299 78.7646 165.063 78.1246C166.136 77.2368 166.652 76.0187 166.652 74.4495V66.5625V64.1056H165.228V66.2116ZM100.046 65.8813C100.706 64.5806 101.842 63.9199 103.452 63.9199V65.3032C102.482 65.3032 101.677 65.5923 101.016 66.1704C100.892 66.2736 100.789 66.4182 100.686 66.5627C100.273 67.1201 100.046 67.8841 100.046 68.8957V74.8832H98.6212V66.5627V64.1057H100.046V65.8813ZM125.028 65.0347C124.285 64.2294 123.253 63.8372 121.931 63.8372C120.321 63.8372 119.123 64.4772 118.318 65.7779V64.1056H116.894V66.5625V74.883H118.318V69.2259C118.318 68.0903 118.566 67.2025 119.02 66.5625C119.103 66.4386 119.185 66.3147 119.289 66.2115C119.929 65.5508 120.775 65.2205 121.808 65.2205C122.737 65.2205 123.459 65.4889 123.975 66.0257C124.12 66.1702 124.244 66.356 124.368 66.5625C124.615 67.0167 124.739 67.5948 124.739 68.2555V74.883H126.164V68.2555C126.164 67.6361 126.081 67.058 125.916 66.5625C125.73 65.9637 125.441 65.4682 125.028 65.0347ZM108.988 73.7681C110.186 73.7681 111.198 73.3552 112.003 72.5293C112.829 71.7035 113.242 70.6918 113.242 69.4943C113.242 68.3381 112.849 67.3677 112.085 66.5625C112.065 66.5212 112.044 66.5006 112.003 66.4593C111.198 65.6334 110.186 65.2205 108.988 65.2205C107.791 65.2205 106.8 65.6334 105.974 66.4593C105.933 66.5006 105.912 66.5212 105.891 66.5625C105.128 67.3677 104.735 68.3381 104.735 69.4943C104.735 70.6918 105.148 71.7035 105.974 72.5293C106.8 73.3552 107.791 73.7681 108.988 73.7681ZM108.885 63.8372C110.805 63.8372 112.251 64.6217 113.242 66.2115V64.1056H114.666V66.5625V74.883H113.242V72.7771C112.251 74.3462 110.805 75.1515 108.885 75.1515C107.337 75.1515 106.036 74.594 104.942 73.4997C103.868 72.4055 103.311 71.0841 103.311 69.4943C103.311 68.4 103.579 67.409 104.116 66.5625C104.343 66.1702 104.611 65.8192 104.942 65.4682C106.036 64.3946 107.337 63.8372 108.885 63.8372ZM141.776 59.749C141.487 59.749 141.239 59.8316 141.053 60.0381C140.847 60.2446 140.743 60.4923 140.743 60.7814C140.743 61.0704 140.847 61.2975 141.053 61.504C141.239 61.7105 141.487 61.8137 141.776 61.8137C142.065 61.8137 142.313 61.7105 142.519 61.504C142.705 61.2975 142.808 61.0704 142.808 60.7814C142.808 60.4923 142.705 60.2446 142.519 60.0381C142.313 59.8316 142.065 59.749 141.776 59.749ZM133.165 73.7682C134.363 73.7682 135.374 73.3553 136.18 72.5294C137.005 71.7036 137.418 70.6919 137.418 69.4944C137.418 68.3382 137.026 67.3678 136.262 66.5626C136.242 66.5213 136.221 66.5007 136.18 66.4594L136.18 66.4594C135.374 65.6335 134.363 65.2206 133.165 65.2206C131.968 65.2206 130.956 65.6335 130.151 66.4594L130.151 66.4594L130.151 66.4594C130.109 66.5007 130.089 66.5213 130.068 66.5626C129.903 66.7278 129.759 66.9136 129.635 67.0994C129.16 67.8014 128.912 68.5859 128.912 69.4944C128.912 70.4028 129.16 71.208 129.635 71.8894C129.779 72.1165 129.944 72.323 130.151 72.5294C130.956 73.3553 131.968 73.7682 133.165 73.7682ZM133.062 63.8372C134.961 63.8372 136.427 64.6218 137.418 66.2116V59.7905H138.843V66.5626V74.8831H137.418V72.7772C136.427 74.3463 134.961 75.1515 133.062 75.1515C131.741 75.1515 130.605 74.7593 129.635 73.954C129.449 73.8302 129.284 73.665 129.119 73.4999L129.118 73.4998C128.024 72.4055 127.487 71.0842 127.487 69.4944C127.487 68.4001 127.756 67.4091 128.272 66.5626C128.52 66.1703 128.788 65.8193 129.118 65.4683C129.175 65.4188 129.232 65.3668 129.289 65.3141L129.289 65.3141L129.289 65.314C129.399 65.2129 129.513 65.109 129.635 65.0141C130.605 64.2295 131.741 63.8372 133.062 63.8372ZM141.07 66.5624V74.8829H142.495V66.5624V64.1054H141.07V66.5624ZM149.766 63.8372C151.066 63.8372 152.099 64.2295 152.863 65.0347C153.255 65.4683 153.544 65.9638 153.73 66.5625C153.895 67.0581 153.998 67.6362 153.998 68.2556V74.8831H152.573V68.2556C152.573 67.5949 152.429 67.0168 152.181 66.5625C152.078 66.3561 151.954 66.1703 151.81 66.0257C151.293 65.4889 150.571 65.2205 149.642 65.2205C148.609 65.2205 147.763 65.5509 147.102 66.2116C147.067 66.2554 147.032 66.3029 146.995 66.3526C146.946 66.42 146.893 66.4913 146.834 66.5625C146.38 67.2026 146.132 68.0904 146.132 69.2259V74.8831H144.728V66.5625V64.1056H146.132V65.778C146.937 64.4772 148.155 63.8372 149.766 63.8372Z" fill="#EC1C29"/>
</svg>
