<svg width="14" height="20" viewBox="0 0 14 20" fill="none" xmlns="http://www.w3.org/2000/svg">
<path fill-rule="evenodd" clip-rule="evenodd" d="M14 5C14 2.23858 11.7614 9.78513e-08 9 2.18557e-07C6.23858 3.39263e-07 4 2.23858 4 5L4 13C4 14.6569 5.34315 16 7 16C8.65685 16 10 14.6569 10 13L10 5C10 4.44771 9.55228 4 9 4C8.44771 4 8 4.44772 8 5L8 13L7.99327 13.1166C7.93551 13.614 7.51284 14 7 14C6.48716 14 6.06449 13.614 6.00673 13.1166L6 13L6 5C6 3.34315 7.34315 2 9 2C10.6569 2 12 3.34315 12 5L12 13C12 15.7614 9.76142 18 7 18C4.31124 18 2.11818 15.8777 2.00462 13.2169L2 13L2 5C2 4.44772 1.55228 4 0.999999 4C0.447714 4 -6.79812e-07 4.44772 -6.55671e-07 5L-3.0598e-07 13C-1.36992e-07 16.866 3.13401 20 7 20C10.866 20 14 16.866 14 13L14 5Z" fill="white"/>
</svg>
