<svg width="890" height="430" viewBox="0 0 890 430" fill="none" xmlns="http://www.w3.org/2000/svg">
<path d="M19 315.837V306.939L193.161 25.1901H200.572V49.6578H191.679L36.0456 302.49V303.973H252.45V315.837H19ZM193.161 404.81V25.1901H205.019V404.81H193.161Z" fill="#E9E9E9"/>
<path d="M444.907 410C420.821 410 400.07 402.153 382.654 386.459C365.361 370.765 352.021 348.337 342.634 319.173C333.247 290.01 328.553 255.285 328.553 215C328.553 174.715 333.247 139.99 342.634 110.827C352.021 81.6635 365.361 59.2348 382.654 43.5409C400.07 27.847 420.821 20 444.907 20C468.994 20 489.683 27.847 506.975 43.5409C524.392 59.2348 537.793 81.6635 547.181 110.827C556.568 139.99 561.262 174.715 561.262 215C561.262 255.285 556.568 290.01 547.181 319.173C537.793 348.337 524.392 370.765 506.975 386.459C489.683 402.153 468.994 410 444.907 410ZM444.907 398.137C477.269 398.137 502.776 381.887 521.427 349.387C540.078 316.887 549.404 272.091 549.404 215C549.404 176.939 545.143 144.254 536.62 116.944C528.221 89.5105 516.239 68.5028 500.676 53.9211C485.113 39.2158 466.523 31.8631 444.907 31.8631C412.546 31.8631 387.039 48.1131 368.388 80.6131C349.736 113.113 340.411 157.909 340.411 215C340.411 253.061 344.61 285.808 353.01 313.241C361.532 340.551 373.575 361.559 389.139 376.264C404.826 390.846 423.415 398.137 444.907 398.137Z" fill="#E9E9E9"/>
<path d="M637.55 315.837V306.939L811.711 25.1901H819.122V49.6578H810.229L654.596 302.49V303.973H871V315.837H637.55ZM811.711 404.81V25.1901H823.569V404.81H811.711Z" fill="#E9E9E9"/>
</svg>
