<svg width="32" height="32" viewBox="0 0 32 32" fill="none" xmlns="http://www.w3.org/2000/svg">
<path fill-rule="evenodd" clip-rule="evenodd" d="M31.1943 8.24911C31.4242 7.54448 31.1943 7.03203 30.1766 7.03203H26.7949C25.9413 7.03203 25.5473 7.48043 25.3175 7.96085C25.3175 7.96085 23.5775 12.0605 21.1479 14.7189C20.36 15.4875 19.9988 15.7438 19.572 15.7438C19.3422 15.7438 19.0467 15.4875 19.0467 14.7829V8.21708C19.0467 7.38434 18.7841 7 18.0618 7H12.7431C12.2178 7 11.8895 7.38434 11.8895 7.76868C11.8895 8.56939 13.1043 8.76157 13.2356 11.0036V15.8719C13.2356 16.9288 13.0386 17.121 12.6118 17.121C11.4627 17.121 8.67203 12.9893 6.99763 8.28114C6.66932 7.35231 6.341 7 5.48739 7H2.07293C1.08798 7 0.923828 7.4484 0.923828 7.92882C0.923828 8.79359 2.07293 13.1495 6.27534 18.9146C9.06601 22.8541 13.0386 24.968 16.6172 24.968C18.7841 24.968 19.0467 24.4875 19.0467 23.6868V20.7082C19.0467 19.7473 19.2437 19.5872 19.9332 19.5872C20.4257 19.5872 21.3121 19.8434 23.3148 21.7331C25.613 23.9751 26.007 25 27.2874 25H30.669C31.654 25 32.1136 24.5196 31.851 23.5907C31.5555 22.6619 30.4392 21.3167 28.9946 19.7153C28.2067 18.8185 27.0248 17.8256 26.6636 17.3452C26.1711 16.7046 26.3025 16.4484 26.6636 15.8719C26.6308 15.8719 30.7675 10.1708 31.1943 8.24911Z" fill="white"/>
</svg>
