<svg width="32" height="32" viewBox="0 0 32 32" fill="none" xmlns="http://www.w3.org/2000/svg">
<path d="M18.2381 18.3143C16.3524 20.26 16.2153 22.6857 16.0524 28C21.0067 28 24.4267 27.9829 26.1924 26.2686C27.9067 24.5029 27.9238 20.92 27.9238 16.1286C22.6095 16.3 20.1838 16.4286 18.2381 18.3143ZM3.92383 16.1286C3.92383 20.92 3.94097 24.5029 5.65526 26.2686C7.42097 27.9829 10.841 28 15.7953 28C15.6238 22.6857 15.4953 20.26 13.6095 18.3143C11.6638 16.4286 9.23811 16.2914 3.92383 16.1286ZM15.7953 4C10.8495 4 7.42097 4.01714 5.65526 5.73143C3.94097 7.49714 3.92383 11.08 3.92383 15.8714C9.23811 15.7 11.6638 15.5714 13.6095 13.6857C15.4953 11.74 15.6324 9.31429 15.7953 4ZM18.2381 13.6857C16.3524 11.74 16.2153 9.31429 16.0524 4C21.0067 4 24.4267 4.01714 26.1924 5.73143C27.9067 7.49714 27.9238 11.08 27.9238 15.8714C22.6095 15.7 20.1838 15.5714 18.2381 13.6857Z" fill="white"/>
</svg>
