<svg width="32" height="32" viewBox="0 0 32 32" fill="none" xmlns="http://www.w3.org/2000/svg">
<path d="M2.9142 15.565C5.7198 14.0196 8.8516 12.7297 11.7778 11.4333C16.812 9.30995 21.8662 7.22335 26.9714 5.28075C27.9647 4.94977 29.7494 4.62613 29.9244 6.09807C29.8285 8.18167 29.4343 10.2531 29.164 12.3245C28.4777 16.8797 27.6845 21.4193 26.911 25.9595C26.6445 27.4718 24.75 28.2547 23.5378 27.2869C20.6246 25.3191 17.689 23.3705 14.813 21.3571C13.8709 20.3998 14.7445 19.0251 15.5859 18.3415C17.9853 15.9769 20.5299 13.9679 22.8039 11.4811C23.4173 9.99983 21.6049 11.2481 21.007 11.6307C17.7222 13.8943 14.5178 16.2961 11.0546 18.2855C9.28564 19.2593 7.22384 18.4271 5.45564 17.8837C3.87026 17.2273 1.54704 16.566 2.91404 15.5651L2.9142 15.565Z" fill="white"/>
</svg>
