<svg width="919" height="473" viewBox="0 0 919 473" fill="none" xmlns="http://www.w3.org/2000/svg">
<path d="M881.045 34.8223L860.938 48.3727L891.17 61.3296L918.576 42.8609L900.174 15.5551L867.607 14.8826L881.045 34.8223Z" fill="#EC1C29"/>
<path d="M1 321.864C32.1532 350.972 152.411 472 415.756 472C606.644 472 721.5 410.318 721.5 307.5C721.5 238.73 672.434 202.931 629.793 202.931C587.152 202.931 568.541 215.159 568.541 240.745C568.541 266.331 595.411 283.018 629.29 283.018C663.169 283.018 705.162 270.385 720.997 199.585C734.69 138.363 707.89 17.1452 851 29.9382" stroke="white" stroke-width="2" stroke-dasharray="10 10"/>
</svg>
